<?xml version="1.0" standalone="no"?>
<!DOCTYPE svg PUBLIC "-//W3C//DTD SVG 20010904//EN"
 "http://www.w3.org/TR/2001/REC-SVG-20010904/DTD/svg10.dtd">
<svg version="1.0" xmlns="http://www.w3.org/2000/svg"
 width="696.000000pt" height="133.000000pt" viewBox="0 0 696.000000 133.000000"
 preserveAspectRatio="xMidYMid meet">

<g transform="translate(0.000000,133.000000) scale(0.100000,-0.100000)"
fill="#000000" stroke="none">
<path d="M1707 1323 c942 -2 2484 -2 3425 0 942 1 172 2 -1712 2 -1884 0
-2654 -1 -1713 -2z"/>
<path d="M0 1120 l0 -60 65 0 65 0 0 -185 0 -185 55 0 55 0 1 185 c1 102 2
199 2 215 0 17 -1 44 -2 60 l-1 30 -120 0 -120 0 0 -60z"/>
<path d="M280 1120 l0 -60 43 0 c40 0 44 3 75 51 17 28 32 55 32 60 0 5 -34 9
-75 9 l-75 0 0 -60z"/>
<path d="M480 935 l0 -245 154 0 153 0 37 55 c20 30 33 55 29 55 -5 1 -64 2
-133 3 l-125 2 0 125 0 125 133 3 c72 1 132 5 132 8 0 3 -18 29 -40 59 l-41
55 -149 0 -150 0 0 -245z"/>
<path d="M925 1168 c-3 -7 -4 -116 -3 -243 l3 -230 58 -3 57 -3 -2 243 -3 243
-53 3 c-36 2 -54 -1 -57 -10z"/>
<path d="M1350 935 l0 -245 154 0 153 0 36 55 37 54 -133 3 -132 3 -3 128 -3
127 136 0 c74 0 135 2 135 5 0 3 -18 30 -40 60 l-41 55 -149 0 -150 0 0 -245z"/>
<path d="M1797 1173 c-4 -3 -7 -30 -7 -60 l0 -53 65 0 65 0 0 -185 0 -185 55
0 55 0 0 245 0 245 -113 0 c-63 0 -117 -3 -120 -7z"/>
<path d="M2069 1175 c0 -3 -1 -29 -1 -57 l-1 -53 41 -3 c39 -3 42 -1 76 50 20
29 36 56 36 60 0 9 -150 11 -151 3z"/>
<path d="M2267 1173 c-3 -5 -2 -32 0 -60 l6 -53 134 0 134 0 -3 -52 -3 -53
-75 0 -75 0 -3 38 -3 38 -55 -3 c-30 -2 -54 -6 -54 -10 0 -5 0 -80 0 -168 l0
-160 55 0 54 0 3 73 3 72 32 3 c31 3 36 -1 80 -72 l48 -75 68 0 c37 -1 67 1
67 5 0 3 -18 32 -40 64 -45 67 -48 76 -21 85 28 9 35 36 36 160 2 110 -5 139
-34 162 -18 14 -346 19 -354 6z"/>
<path d="M3033 1170 c-12 -5 -48 -49 -81 -97 -82 -123 -242 -372 -242 -378 0
-3 29 -5 65 -5 63 0 65 1 87 35 l23 35 80 -2 79 -3 1 -30 c0 -29 1 -30 58 -33
l57 -3 0 96 0 95 -95 0 c-52 0 -95 2 -95 5 0 15 70 108 71 95 1 -8 2 -26 3
-40 1 -23 5 -25 59 -28 l57 -3 0 101 c0 56 -5 110 -11 122 -6 11 -26 26 -44
34 -39 16 -42 16 -72 4z"/>
<path d="M3280 1167 c-55 -19 -60 -38 -60 -269 l0 -208 55 0 55 0 1 88 c1 48
2 111 3 141 1 30 6 56 11 57 6 2 39 -44 75 -102 92 -149 123 -184 165 -184 21
0 45 9 64 26 l31 26 0 219 0 219 -55 0 -55 0 0 -150 c0 -82 -4 -150 -8 -150
-4 0 -46 59 -92 131 -47 72 -92 136 -100 144 -24 21 -53 25 -90 12z"/>
<path d="M3782 1164 c-17 -12 -22 -25 -22 -60 l0 -44 190 0 c105 0 190 2 190
5 0 3 -18 30 -40 60 l-41 55 -127 0 c-99 0 -132 -3 -150 -16z"/>
<path d="M4197 1173 c-4 -3 -7 -30 -7 -59 l0 -53 138 -3 137 -3 0 -50 0 -50
-75 0 -75 0 -5 35 -5 35 -55 0 -55 0 -3 -167 -2 -168 60 0 60 0 0 75 0 75 118
0 c157 0 152 -5 152 168 0 129 0 131 -26 151 -25 19 -40 21 -189 21 -89 0
-165 -3 -168 -7z"/>
<path d="M4660 1160 c-13 -13 -20 -33 -20 -60 l0 -40 195 0 195 0 0 39 c0 31
-6 44 -26 60 -24 19 -40 21 -175 21 -136 0 -151 -2 -169 -20z"/>
<path d="M5090 1120 l0 -60 136 0 135 0 -3 -52 -3 -53 -75 0 -75 0 -3 38 -3
38 -55 -3 c-30 -2 -54 -6 -54 -10 0 -5 0 -80 0 -168 l0 -160 55 0 54 0 3 73 3
72 31 3 c29 3 35 -3 81 -70 l50 -73 67 -3 c36 -2 66 0 66 3 0 3 -18 33 -40 65
-45 67 -48 76 -21 85 11 3 23 16 27 27 5 17 7 132 4 255 0 7 -10 21 -22 33
-20 18 -35 20 -190 20 l-168 0 0 -60z"/>
<path d="M5544 1166 c-3 -7 -4 -33 -2 -57 l3 -44 60 -5 60 -5 3 -182 2 -183
55 0 55 0 0 245 0 245 -115 0 c-89 0 -117 -3 -121 -14z"/>
<path d="M5820 1120 l0 -60 40 0 c36 0 42 4 75 52 19 29 35 56 35 60 0 5 -34
8 -75 8 l-75 0 0 -60z"/>
<path d="M6019 1178 c-1 -4 -1 -186 0 -350 l1 -138 153 0 152 0 33 50 c17 28
31 53 30 56 -2 3 -59 6 -128 7 l-125 2 -3 128 -3 127 136 0 136 0 -41 60 -41
60 -149 0 c-83 0 -150 -1 -151 -2z"/>
<path d="M6467 1173 c-4 -3 -7 -30 -7 -60 l0 -53 141 0 140 0 -3 -52 -3 -53
-75 0 -75 0 -5 35 c-5 35 -5 35 -62 38 l-58 3 0 -171 0 -170 60 0 60 0 0 75 0
75 33 0 c31 0 37 -6 81 -75 l48 -75 70 0 70 0 -17 28 c-10 15 -29 43 -42 62
-29 43 -29 48 2 72 24 19 25 22 25 153 0 180 7 175 -215 175 -89 0 -165 -3
-168 -7z"/>
<path d="M3792 1020 c2 -5 45 -51 96 -103 50 -52 92 -99 92 -106 0 -8 -37 -11
-120 -11 l-120 0 36 -55 37 -55 153 0 c153 0 154 0 170 25 21 32 14 84 -16
123 -12 15 -58 64 -102 110 l-81 82 -74 0 c-43 0 -73 -4 -71 -10z"/>
<path d="M4640 883 c0 -205 -12 -193 195 -193 208 0 197 -11 193 191 l-3 144
-55 0 -55 0 -5 -110 -5 -110 -72 -3 c-54 -2 -73 0 -74 10 0 7 -1 58 -2 113
l-2 100 -57 3 -58 3 0 -148z"/>
<path d="M630 932 l0 -57 41 0 c39 0 44 3 81 57 l39 58 -81 0 -80 0 0 -58z"/>
<path d="M1500 930 l0 -61 40 4 c22 2 42 6 44 8 19 23 66 94 66 101 0 4 -34 8
-75 8 l-75 0 0 -60z"/>
<path d="M6169 988 c0 -2 -1 -28 -2 -58 l-2 -54 42 -2 c40 -1 44 1 78 52 19
30 35 56 35 59 0 5 -149 7 -151 3z"/>
<path d="M1070 745 l0 -55 83 0 82 1 37 54 37 55 -119 0 -120 0 0 -55z"/>
<path d="M753 423 c406 -2 1068 -2 1470 0 403 1 71 2 -738 2 -808 0 -1138 -1
-732 -2z"/>
<path d="M3030 375 c0 -15 5 -25 13 -24 6 1 29 1 50 0 34 -1 38 -4 35 -23 -4
-31 -37 -35 -58 -8 -26 35 -40 16 -40 -55 0 -45 4 -64 14 -68 19 -8 26 1 26
34 0 26 3 28 48 31 l47 3 0 65 0 65 -67 3 c-67 3 -68 3 -68 -23z"/>
<path d="M3298 383 c-14 -17 -108 -181 -108 -189 0 -11 44 5 55 19 17 23 52
21 65 -3 16 -29 40 -14 40 26 0 31 -3 34 -28 34 -37 0 -44 8 -30 33 9 18 11
19 20 4 5 -10 16 -17 23 -17 19 0 21 80 3 98 -16 16 -22 15 -40 -5z"/>
<path d="M3383 385 c-9 -25 4 -30 68 -29 66 1 78 6 59 29 -18 21 -118 21 -127
0z"/>
<path d="M3550 306 c0 -58 4 -97 11 -102 6 -3 36 -7 67 -7 l57 -1 3 102 c3 97
2 102 -18 102 -18 0 -20 -6 -20 -80 l0 -80 -30 0 -30 0 0 80 c0 73 -2 80 -20
80 -19 0 -20 -7 -20 -94z"/>
<path d="M3720 395 c-1 -3 -1 -49 -1 -102 l-1 -97 51 -2 c43 -1 53 2 66 22 15
23 14 23 -33 26 l-47 3 -3 53 c-2 28 1 52 5 53 4 0 26 2 48 4 22 1 42 3 44 4
2 0 -4 10 -14 21 -13 15 -31 20 -67 20 -26 0 -48 -2 -48 -5z"/>
<path d="M3880 375 c0 -18 5 -25 20 -25 21 0 21 1 24 -95 1 -46 4 -60 16 -60
12 0 16 19 18 103 l3 102 -41 0 c-36 0 -40 -2 -40 -25z"/>
<path d="M3980 382 c0 -26 11 -34 27 -21 20 17 16 39 -7 39 -13 0 -20 -7 -20
-18z"/>
<path d="M4054 387 c-3 -8 -4 -54 -2 -103 l3 -89 55 3 c49 3 69 13 70 35 0 4
-20 7 -45 7 l-46 0 3 58 3 57 43 -2 c43 -3 55 10 30 35 -17 17 -107 16 -114
-1z"/>
<path d="M4220 375 c0 -14 4 -24 9 -20 6 3 28 2 51 -1 34 -6 41 -10 38 -28 -4
-31 -47 -34 -69 -5 -10 13 -21 21 -24 17 -6 -5 -13 -138 -8 -138 1 0 8 -3 16
-6 12 -4 16 3 19 28 4 44 31 49 48 9 11 -27 44 -50 56 -38 3 2 0 16 -7 30 -7
15 -8 31 -2 40 4 9 6 42 3 74 l-5 58 -62 3 c-62 3 -63 3 -63 -23z"/>
<path d="M4390 295 c0 -96 2 -106 18 -103 15 3 17 16 17 103 0 87 -2 100 -17
103 -16 3 -18 -7 -18 -103z"/>
<path d="M4541 355 c-49 -77 -86 -153 -78 -161 4 -4 21 2 37 14 34 25 70 29
70 7 0 -8 9 -15 20 -15 16 0 20 7 20 35 0 32 -2 35 -30 35 -31 0 -37 13 -20
40 8 12 10 12 16 -3 3 -9 12 -17 20 -17 21 0 19 96 -2 104 -23 9 -22 10 -53
-39z"/>
<path d="M4800 395 c0 -2 14 -28 32 -57 17 -29 34 -72 37 -96 3 -23 11 -43 16
-43 6 0 13 20 16 43 3 24 20 67 37 96 18 29 32 55 32 57 0 3 -9 5 -20 5 -13 0
-28 -13 -41 -35 -12 -19 -22 -35 -24 -35 -2 0 -12 16 -24 35 -13 22 -28 35
-41 35 -11 0 -20 -2 -20 -5z"/>
<path d="M5173 393 c-20 -8 -18 -189 2 -197 12 -4 15 5 15 54 0 33 4 60 9 60
5 0 18 -16 30 -35 11 -19 25 -35 30 -35 14 0 39 27 46 50 12 38 25 20 25 -35
0 -48 2 -55 20 -55 18 0 20 7 20 83 0 125 -35 155 -80 67 -22 -44 -35 -50 -45
-21 -7 23 -44 71 -53 70 -4 0 -13 -3 -19 -6z"/>
<path d="M5397 392 c-3 -4 -5 -49 -4 -100 0 -82 2 -92 19 -93 90 -4 108 0 108
27 0 10 -12 14 -45 14 l-45 0 0 55 0 55 45 0 c45 0 50 5 39 34 -5 12 -20 16
-59 16 -30 0 -56 -3 -58 -8z"/>
<path d="M5572 388 c-8 -8 -12 -46 -12 -106 0 -84 2 -93 18 -90 14 3 16 12 14
61 -5 73 9 73 49 1 25 -43 36 -54 53 -52 20 3 21 10 24 101 2 90 1 98 -15 95
-15 -3 -18 -12 -15 -61 3 -68 -9 -73 -39 -14 -22 44 -47 77 -59 77 -3 0 -11
-5 -18 -12z"/>
<path d="M5760 385 c0 -8 0 -18 0 -22 0 -3 27 -7 60 -9 60 -2 65 1 54 30 -9
22 -114 23 -114 1z"/>
<path d="M5967 300 c-31 -55 -57 -102 -57 -104 0 -13 43 1 51 16 13 25 54 23
71 -4 19 -29 38 -15 38 28 0 31 -3 34 -28 34 -37 0 -44 8 -30 33 9 18 11 19
20 4 18 -33 38 -20 38 26 0 42 -13 67 -35 67 -6 0 -36 -45 -68 -100z"/>
<path d="M6198 323 c-3 -73 -4 -78 -27 -81 -13 -2 -28 1 -34 7 -22 22 -38 12
-35 -21 l3 -33 59 2 c59 2 81 14 71 41 -3 8 -5 47 -5 88 0 58 -3 74 -15 74
-11 0 -15 -18 -17 -77z"/>
<path d="M6262 298 l3 -102 55 3 c50 2 69 12 70 34 0 4 -20 7 -45 7 l-45 0 0
54 c0 59 7 66 58 60 35 -4 37 -2 22 27 -9 15 -22 19 -66 19 l-55 0 3 -102z"/>
<path d="M6428 395 c-3 -3 -4 -14 -1 -24 4 -15 13 -18 44 -17 49 3 63 -6 54
-33 -9 -28 -48 -28 -67 1 -23 34 -33 16 -33 -59 0 -54 3 -68 15 -68 9 0 17 12
20 29 7 40 25 43 46 9 10 -15 18 -29 18 -29 1 -1 12 -5 25 -9 21 -6 23 -5 16
11 -5 11 -9 57 -9 104 l-1 85 -60 3 c-34 2 -64 0 -67 -3z"/>
<path d="M6600 296 c0 -88 3 -106 15 -106 12 0 15 17 15 95 0 52 0 98 1 103 0
4 -7 8 -15 10 -14 3 -16 -12 -16 -102z"/>
<path d="M6718 300 c-31 -55 -54 -101 -50 -104 11 -6 52 12 52 24 0 5 13 10
29 10 21 0 30 -6 34 -21 9 -33 32 -17 35 24 3 35 2 37 -27 37 -24 0 -31 4 -31
19 0 26 18 37 26 17 3 -9 12 -16 20 -16 10 0 14 13 14 43 0 42 -13 67 -35 67
-6 0 -37 -45 -67 -100z"/>
<path d="M772 343 c401 -2 1055 -2 1455 0 401 1 73 2 -727 2 -800 0 -1128 -1
-728 -2z"/>
<path d="M3386 333 c-3 -4 -6 -35 -6 -70 l0 -63 38 0 c26 0 45 -7 57 -20 10
-11 26 -20 37 -20 19 0 24 15 9 25 -6 3 -7 33 -4 68 4 50 2 65 -11 76 -19 16
-23 7 -28 -49 -3 -32 -6 -35 -33 -35 -29 0 -30 2 -29 42 1 39 -14 61 -30 46z"/>
<path d="M5770 334 c0 -4 14 -22 30 -41 17 -18 30 -38 30 -43 0 -6 -18 -10
-40 -10 -37 0 -40 -2 -30 -19 11 -22 36 -28 93 -22 31 3 37 7 37 26 0 21 -48
91 -73 107 -15 9 -47 10 -47 2z"/>
<path d="M3770 295 c0 -30 11 -32 33 -7 23 25 21 32 -8 32 -20 0 -25 -5 -25
-25z"/>
<path d="M4110 294 c0 -30 16 -28 38 4 14 21 13 22 -12 22 -21 0 -26 -5 -26
-26z"/>
<path d="M5452 298 c4 -28 18 -27 37 1 12 20 11 21 -13 21 -23 0 -27 -4 -24
-22z"/>
<path d="M6320 294 c0 -30 16 -28 38 4 14 21 13 22 -12 22 -21 0 -26 -5 -26
-26z"/>
<path d="M738 203 c404 -2 1061 -2 1460 0 400 1 70 2 -733 2 -803 0 -1130 -1
-727 -2z"/>
<path d="M5185 110 c10 -11 20 -20 22 -20 2 0 -2 9 -9 20 -7 11 -17 20 -22 20
-5 0 -1 -9 9 -20z"/>
<path d="M5240 115 c0 -8 2 -15 4 -15 2 0 6 7 10 15 3 8 1 15 -4 15 -6 0 -10
-7 -10 -15z"/>
<path d="M5300 120 c0 -5 5 -10 10 -10 6 0 10 5 10 10 0 6 -4 10 -10 10 -5 0
-10 -4 -10 -10z"/>
<path d="M5462 100 c0 -19 2 -27 5 -17 2 9 2 25 0 35 -3 9 -5 1 -5 -18z"/>
<path d="M5522 100 c0 -19 2 -27 5 -17 2 9 2 25 0 35 -3 9 -5 1 -5 -18z"/>
<path d="M5721 110 c14 -31 19 -36 19 -24 0 6 -7 19 -16 30 -14 18 -14 18 -3
-6z"/>
<path d="M6000 126 c0 -2 7 -9 15 -16 9 -7 15 -8 15 -2 0 5 -7 12 -15 16 -8 3
-15 4 -15 2z"/>
<path d="M6252 110 c7 -10 14 -18 15 -16 6 6 -9 36 -18 36 -5 0 -4 -9 3 -20z"/>
<path d="M6312 105 c0 -16 2 -22 5 -12 2 9 2 23 0 30 -3 6 -5 -1 -5 -18z"/>
<path d="M6372 105 c0 -16 2 -22 5 -12 2 9 2 23 0 30 -3 6 -5 -1 -5 -18z"/>
<path d="M6498 101 c15 -16 29 -28 31 -25 6 5 -40 54 -51 54 -4 0 5 -13 20
-29z"/>
<path d="M5356 111 c-4 -7 -5 -15 -2 -18 9 -9 19 4 14 18 -4 11 -6 11 -12 0z"/>
<path d="M5571 104 c0 -11 3 -14 6 -6 3 7 2 16 -1 19 -3 4 -6 -2 -5 -13z"/>
<path d="M5641 104 c0 -11 3 -14 6 -6 3 7 2 16 -1 19 -3 4 -6 -2 -5 -13z"/>
<path d="M5781 104 c0 -11 3 -14 6 -6 3 7 2 16 -1 19 -3 4 -6 -2 -5 -13z"/>
<path d="M5920 114 c0 -6 7 -19 16 -30 14 -18 14 -18 3 6 -14 31 -19 36 -19
24z"/>
<path d="M6630 105 c0 -8 2 -15 4 -15 2 0 6 7 10 15 3 8 1 15 -4 15 -6 0 -10
-7 -10 -15z"/>
<path d="M6730 105 c0 -8 2 -15 4 -15 2 0 6 7 10 15 3 8 1 15 -4 15 -6 0 -10
-7 -10 -15z"/>
<path d="M6800 104 c0 -8 5 -12 10 -9 6 4 8 11 5 16 -9 14 -15 11 -15 -7z"/>
</g>
</svg>
